Coordinates
version=1
nRows=29
nColumns=24
inDegrees=yes

Units are S.I. units (second, meters, Newtons, ...)
Angles are in degrees.

endheader
time	pelvis_tilt	pelvis_list	pelvis_rotation	pelvis_tx	pelvis_ty	pelvis_tz	hip_flexion_r	hip_adduction_r	hip_rotation_r	knee_angle_r	ankle_angle_r	subtalar_angle_r	mtp_angle_r	hip_flexion_l	hip_adduction_l	hip_rotation_l	knee_angle_l	ankle_angle_l	subtalar_angle_l	mtp_angle_l	lumbar_extension	lumbar_bending	lumbar_rotation
      1.04400000	     -0.33658064	     -6.75122452	     -2.36116259	     -0.14749149	      0.98447957	      0.32833497	    -15.00590961	     11.30039336	      1.65200797	     -7.99906682	      9.16328236	     -9.36632335	     -0.87818995	     21.14269604	     -5.33001281	     -5.25241467	      4.02326920	     -4.18791792	     -1.59880770	      3.75156238	     -5.06710646	     10.38249513	      6.64469302
      1.04816667	     -0.40984058	     -6.70599714	     -2.42161099	     -0.14167536	      0.98385972	      0.32819637	    -15.00331429	     11.22005477	      1.70824100	     -8.53154969	      9.19025871	     -9.44227130	     -0.76422446	     21.14863844	     -5.24631178	     -5.17891138	      4.00613746	     -4.42459333	     -1.93198427	      3.88434353	     -4.96155938	     10.30474209	      6.74569535
      1.05233333	     -0.43677520	     -6.62060709	     -2.45769918	     -0.13578244	      0.98336409	      0.32805479	    -15.05416758	     11.10237791	      1.73531578	     -9.04128123	      9.11099084	     -9.54834262	     -0.71708984	     21.13866557	     -5.12044508	     -5.21101162	      3.85241773	     -4.65600745	     -2.12370295	      3.94145787	     -4.88299327	     10.16846476	      6.73136533
      1.05650000	     -0.51377921	     -6.52488429	     -2.49104369	     -0.12988616	      0.98285783	      0.32789137	    -15.01893306	     10.97925013	      1.76866715	     -9.61235334	      9.05755883	     -9.69164635	     -0.63698600	     21.17098609	     -4.98549633	     -5.10968026	      3.66162363	     -4.98025830	     -2.52710741	      4.04075947	     -4.76191995	     10.03502109	      6.73494728
      1.06066667	     -0.57614749	     -6.44761339	     -2.50113380	     -0.12399846	      0.98241771	      0.32769656	    -14.98772379	     10.88175745	      1.79589205	    -10.19135343	      8.95025967	     -9.83210879	     -0.50090840	     21.20947534	     -4.86575842	     -4.94302904	      3.37972038	     -5.34092103	     -3.08839136	      4.21082944	     -4.65804528	      9.94318597	      6.72654310
      1.06483333	     -0.63330091	     -6.34069173	     -2.50864907	     -0.11804826	      0.98204943	      0.32750843	    -14.93899756	     10.75420165	      1.80055355	    -10.81231670	      8.80631696	     -9.99103072	     -0.34259181	     21.24100162	     -4.71933282	     -4.79453169	      3.04389800	     -5.72857681	     -3.61285478	      4.40625097	     -4.54536651	      9.79699286	      6.69376803
      1.06900000	     -0.70747833	     -6.22457295	     -2.50587780	     -0.11207691	      0.98171652	      0.32731139	    -14.84711888	     10.62219522	      1.79329131	    -11.47181575	      8.62917915	    -10.15980462	     -0.17301552	     21.30229618	     -4.56411486	     -4.62672211	      2.64282834	     -6.13776765	     -4.15553288	      4.60648139	     -4.40821215	      9.63937701	      6.65536673
      1.07316667	     -0.66139852	     -6.07403923	     -2.46554742	     -0.10603631	      0.98159009	      0.32705147	    -14.87611564	     10.44756835	      1.70512510	    -12.12533357	      8.34577483	    -10.28230015	      0.86951308	     21.19700580	     -4.35793811	     -4.38422693	      2.28459199	     -6.67622952	     -4.84588131	      5.75137138	     -4.41184694	      9.43528172	      6.55124530
      1.07733333	     -0.80888708	     -5.93258536	     -2.46599756	     -0.10001611	      0.98127640	      0.32686766	    -14.64322672	     10.29705484	      1.69493755	    -12.89303631	      8.12577096	    -10.49059773	      0.96125666	     21.38406799	     -4.18825493	     -4.28486724	      1.70906873	     -7.02287509	     -5.22502707	      5.82900047	     -4.17154563	      9.23359125	      6.54266311
      1.08150000	     -0.89124698	     -5.81814913	     -2.42215218	     -0.09400004	      0.98108830	      0.32660938	    -14.46504696	     10.17987046	      1.64823636	    -13.67023504	      7.84380087	    -10.68400161	      1.14193673	     21.47881555	     -4.02633993	     -4.01913699	      1.16908210	     -7.51618841	     -5.93534727	      5.96583459	     -4.00998519	      9.09259128	      6.46857595
      1.08566667	     -0.95821801	     -5.66750231	     -2.36571311	     -0.08792472	      0.98098051	      0.32633481	    -14.27816767	     10.02307192	      1.55816055	    -14.48155040	      7.49777327	    -10.86255527	      1.33707782	     21.55716587	     -3.82510391	     -3.78837685	      0.60259401	     -8.00817480	     -6.54130959	      6.09650350	     -3.85459165	      8.88418559	      6.38502488
      1.08983333	     -1.02550398	     -5.51563867	     -2.30467078	     -0.08184461	      0.98092570	      0.32603741	    -14.05509996	      9.86354086	      1.45273396	    -15.34846745	      7.10080558	    -11.02688123	      1.56503152	     21.63691191	     -3.62139234	     -3.53717992	      0.01399626	     -8.49388184	     -7.14961535	      6.22885107	     -3.70387258	      8.68293505	      6.29297033
      1.09400000	     -1.09653823	     -5.35676319	     -2.23950649	     -0.07575269	      0.98091738	      0.32572736	    -13.78967564	      9.69518760	      1.32587576	    -16.27450926	      6.65499685	    -11.18068881	      1.85165701	     21.71700252	     -3.40922686	     -3.27371505	     -0.58522507	     -8.97112589	     -7.75437401	      6.37023500	     -3.54686720	      8.47581184	      6.18731880
      1.09816667	     -1.15870548	     -5.19007971	     -2.15746359	     -0.06963960	      0.98096882	      0.32539116	    -13.50508339	      9.51806529	      1.16845370	    -17.23633093	      6.13648358	    -11.32441119	      2.14475677	     21.79572031	     -3.18476322	     -3.02798948	     -1.21189404	     -9.43426295	     -8.29252602	      6.49070090	     -3.39259015	      8.25217696	      6.08397033
      1.10233333	     -1.22753253	     -5.02160061	     -2.07736246	     -0.06352797	      0.98106331	      0.32504350	    -13.16966297	      9.33485440	      0.99665403	    -18.26656483	      5.56637521	    -11.46480824	      2.48671063	     21.87404227	     -2.95851975	     -2.76779676	     -1.83829594	     -9.86745952	     -8.82469323	      6.60623251	     -3.23241111	      8.03342924	      5.97369343
      1.10650000	     -1.21991934	     -4.81482967	     -1.96653520	     -0.05737572	      0.98128064	      0.32462049	    -12.88265705	      9.08864405	      0.69424517	    -19.32102768	      4.82944387	    -11.55243528	      9.12378022	     21.86790847	     -2.67972264	     -2.52508559	     -2.47157416	    -10.23086805	     -9.32606618	      8.38568131	     -3.15958830	      7.75451916	      5.87771277
      1.11066667	     -1.30606931	     -4.63777453	     -1.90150884	     -0.05125705	      0.98146205	      0.32429572	    -12.45834784	      8.89402001	      0.55677461	    -20.45251378	      4.13303641	    -11.77852276	      9.17249165	     21.96201277	     -2.45522505	     -2.34084806	     -3.11733939	    -10.61573042	     -9.70873289	      8.34952133	     -2.97505682	      7.52614349	      5.76293547
      1.11483333	     -1.34557080	     -4.44807237	     -1.80447773	     -0.04513725	      0.98172446	      0.32390046	    -12.04651886	      8.67486468	      0.33462531	    -21.62811142	      3.36578288	    -11.90136576	      9.26909788	     21.99900728	     -2.20184966	     -2.10701441	     -3.75527960	    -10.92202677	    -10.11494245	      8.31024824	     -2.84306510	      7.27994577	      5.64471976
      1.11900000	     -1.38758431	     -4.25268584	     -1.70138403	     -0.03903652	      0.98201785	      0.32348089	    -11.59312179	      8.44351458	      0.09660145	    -22.85448343	      2.55746256	    -11.97704644	      9.46152313	     22.04178526	     -1.93809310	     -1.87588462	     -4.40711232	    -11.19033241	    -10.55128318	      8.25318687	     -2.71552023	      7.02113165	      5.51197185
      1.12316667	     -1.38170802	     -4.01837533	     -1.60813072	     -0.03289845	      0.98242527	      0.32308421	    -11.16187850	      8.16069542	     -0.14640752	    -24.11833971	      1.65157983	    -12.10574923	      9.55180162	     22.01142487	     -1.64362165	     -1.72581784	     -5.03536747	    -11.34582351	    -10.76108202	      8.22759231	     -2.64687906	      6.70154597	      5.43974508
      1.12733333	     -1.42616636	     -3.81781614	     -1.50998884	     -0.02683710	      0.98277270	      0.32259163	    -10.61325347	      7.88771502	     -0.46340167	    -25.46225602	      0.62414693	    -12.15359641	     14.70770284	     22.01538407	     -1.36670127	     -1.45355594	     -5.61810699	    -11.53389799	    -11.19268339	      7.09369619	     -2.50695262	      6.46764680	      5.29463725
      1.13150000	     -1.44107274	     -3.60426243	     -1.41466417	     -0.02075900	      0.98321300	      0.32215226	    -10.08300126	      7.61057510	     -0.72117576	    -26.81928010	     -0.45116702	    -12.27112794	     14.73178564	     21.98421769	     -1.08776969	     -1.27092302	     -6.20770049	    -11.61683747	    -11.41501961	      7.10078955	     -2.40773337	      6.19824518	      5.19480135
      1.13566667	     -1.45570343	     -3.38492263	     -1.31698636	     -0.01471596	      0.98366807	      0.32168724	     -9.51566871	      7.31669889	     -0.99258006	    -28.22341434	     -1.56692725	    -12.34692449	     14.79130653	     21.94469051	     -0.79815689	     -1.08572639	     -6.78451671	    -11.66344705	    -11.67366341	      7.09967221	     -2.31300708	      5.92520079	      5.08257661
      1.13983333	     -1.47186777	     -3.16433314	     -1.21679582	     -0.00872058	      0.98413359	      0.32120374	     -8.91182237	      7.01323519	     -1.26683989	    -29.66701991	     -2.73315514	    -12.40052492	     14.90612749	     21.90255247	     -0.50299662	     -0.90284860	     -7.35567472	    -11.67632639	    -11.95954295	      7.08679872	     -2.22939408	      5.64671431	      4.95673651
      1.14400000	     -1.46229503	     -2.92418434	     -1.12732861	     -0.00272693	      0.98466143	      0.32072609	     -8.30770993	      6.67664541	     -1.53792661	    -31.14116535	     -3.96831828	    -12.47586230	     15.01879762	     21.79249569	     -0.19076248	     -0.73467426	     -7.85599900	    -11.62003052	    -12.15762690	      7.07002909	     -2.16491832	      5.35328400	      4.85541606
      1.14816667	     -1.46057967	     -2.69290772	     -1.02835525	      0.00320927	      0.98517909	      0.32020695	     -7.66734332	      6.34085791	     -1.81389952	    -32.63966068	     -5.25442846	    -12.55101928	     15.22478076	     21.69553544	      0.12070474	     -0.56435815	     -8.36617168	    -11.53651947	    -12.43243037	      7.02982605	     -2.10096523	      5.06966886	      4.72377419
      1.15233333	     -1.43670863	     -2.44190879	     -0.94204310	      0.00913597	      0.98575586	      0.31971193	     -7.02833527	      5.97450645	     -2.07787448	    -34.15709886	     -6.58673297	    -12.64893531	     15.34529538	     21.53157125	      0.44610607	     -0.41960286	     -8.79582159	    -11.39659671	    -12.57604891	      7.00356839	     -2.06115374	      4.76697231	      4.63814422
      1.15650000	     -1.43174371	     -2.19784780	     -0.85257911	      0.01500382	      0.98631189	      0.31919877	     -6.34520638	      5.61145989	     -2.32704045	    -35.68901562	     -7.95740837	    -12.75613136	     15.46548857	     21.38239180	      0.76910956	     -0.27216324	     -9.21489954	    -11.23273199	    -12.76671389	      6.97110325	     -2.00858591	      4.47375819	      4.53668999
      1.16066667	     -1.44140624	     -1.95946111	     -0.76777797	      0.02080333	      0.98684634	      0.31868213	     -5.62169327	      5.25531294	     -2.54189940	    -37.24138037	     -9.32239573	    -12.95111879	     15.81147797	     21.22940640	      1.09249582	     -0.08604585	     -9.59586501	    -11.03844807	    -13.08061120	      6.85547420	     -1.94482818	      4.19167200	      4.37153198
